<svg width="23" height="22" viewBox="0 0 23 22" fill="none" xmlns="http://www.w3.org/2000/svg">
<g clip-path="url(#clip0)">
<path d="M22.374 16.1458L19.1643 13.0756C18.018 11.9791 16.0692 12.4178 15.6107 13.8432C15.2668 14.83 14.1205 15.3783 13.0888 15.1589C10.7961 14.6107 7.70102 11.7598 7.12786 9.45721C6.78396 8.47033 7.47176 7.37384 8.50345 7.04493C9.99368 6.60634 10.4522 4.74231 9.30588 3.64582L6.09616 0.575656C5.1791 -0.191885 3.80351 -0.191885 3.00108 0.575656L0.823054 2.65898C-1.35497 4.85196 1.05232 10.6633 6.44006 15.8168C11.8278 20.9703 17.9033 23.3826 20.196 21.1896L22.374 19.1063C23.1765 18.2291 23.1765 16.9133 22.374 16.1458Z" fill="black"/>
</g>
<defs>
<clipPath id="clip0">
<rect width="23" height="22" fill="white"/>
</clipPath>
</defs>
</svg>
