<svg width="22" height="22" viewBox="0 0 22 22" fill="none" xmlns="http://www.w3.org/2000/svg">
<g clip-path="url(#clip0)">
<path d="M14.5833 11.1127L22 15.8015V6.22595L14.5833 11.1127Z" fill="black"/>
<path d="M0 6.22595V15.8015L7.41675 11.1127L0 6.22595Z" fill="black"/>
<path d="M20.625 3.4375H1.37499C0.68887 3.4375 0.14437 3.949 0.0412445 4.60763L11 11.8278L21.9587 4.60763C21.8556 3.949 21.3111 3.4375 20.625 3.4375Z" fill="black"/>
<path d="M13.3238 11.9433L11.3781 13.2248C11.2626 13.3004 11.132 13.3375 11 13.3375C10.868 13.3375 10.7374 13.3004 10.6219 13.2248L8.67626 11.9419L0.0440063 17.402C0.149881 18.0551 0.691631 18.5625 1.37501 18.5625H20.625C21.3084 18.5625 21.8501 18.0551 21.956 17.402L13.3238 11.9433Z" fill="black"/>
</g>
<defs>
<clipPath id="clip0">
<rect width="22" height="22" fill="white"/>
</clipPath>
</defs>
</svg>
