<svg width="21" height="22" viewBox="0 0 21 22" fill="none" xmlns="http://www.w3.org/2000/svg">
<g clip-path="url(#clip0)">
<path d="M21 4.17863C20.2191 4.5375 19.3869 4.77537 18.5194 4.89087C19.4119 4.33262 20.0931 3.45537 20.4133 2.398C19.5812 2.91775 18.6624 3.28488 17.6833 3.48975C16.8932 2.60838 15.7671 2.0625 14.5386 2.0625C12.1551 2.0625 10.2362 4.08925 10.2362 6.57388C10.2362 6.93138 10.2651 7.27512 10.3359 7.60237C6.75675 7.4195 3.58969 5.62238 1.46212 2.88475C1.09069 3.55988 0.872813 4.33262 0.872813 5.1645C0.872813 6.7265 1.64062 8.11112 2.78513 8.91275C2.09344 8.899 1.41488 8.68862 0.84 8.35725C0.84 8.371 0.84 8.38888 0.84 8.40675C0.84 10.5985 2.33231 12.419 4.28925 12.8384C3.93881 12.9388 3.55687 12.9869 3.1605 12.9869C2.88488 12.9869 2.60662 12.9704 2.34544 12.9099C2.90325 14.696 4.48613 16.0091 6.36825 16.0518C4.9035 17.2521 3.04369 17.9754 1.03031 17.9754C0.67725 17.9754 0.338625 17.9589 0 17.9135C1.90706 19.2019 4.16719 19.9375 6.6045 19.9375C14.5267 19.9375 18.858 13.0625 18.858 7.10325C18.858 6.90387 18.8514 6.71138 18.8423 6.52025C19.6967 5.885 20.4146 5.09162 21 4.17863Z" fill="#03A9F4"/>
</g>
<defs>
<clipPath id="clip0">
<rect width="21" height="22" fill="white"/>
</clipPath>
</defs>
</svg>
