<svg width="12" height="20" viewBox="0 0 12 20" fill="none" xmlns="http://www.w3.org/2000/svg">
<path d="M11.5559 9.2196L2.65561 0.31951C2.44976 0.113495 2.17496 0 1.88196 0C1.58895 0 1.31416 0.113495 1.10831 0.31951L0.452863 0.974789C0.0263628 1.40178 0.0263628 2.09576 0.452863 2.52209L7.92662 9.99585L0.444571 17.4779C0.238719 17.6839 0.125061 17.9586 0.125061 18.2514C0.125061 18.5446 0.238719 18.8192 0.444571 19.0254L1.10001 19.6805C1.30603 19.8865 1.58066 20 1.87366 20C2.16667 20 2.44147 19.8865 2.64732 19.6805L11.5559 10.7723C11.7622 10.5656 11.8755 10.2897 11.8749 9.99634C11.8755 9.70187 11.7622 9.4261 11.5559 9.2196Z" fill="white"/>
</svg>
